<mxfile host="Electron" agent="Mozilla/5.0 (X11; Linux x86_64) AppleWebKit/537.36 (KHTML, like Gecko) draw.io/24.7.17 Chrome/128.0.6613.36 Electron/32.0.1 Safari/537.36" version="24.7.17">
  <diagram name="Page-1" id="DUAS0geQNpaF1Y98Ou6V">
    <mxGraphModel dx="1687" dy="982" grid="1" gridSize="10" guides="1" tooltips="1" connect="1" arrows="1" fold="1" page="1" pageScale="1" pageWidth="850" pageHeight="1100" math="0" shadow="0">
      <root>
        <mxCell id="0" />
        <mxCell id="1" parent="0" />
        <mxCell id="Lt7wgXIMTxFdf6OJwrkP-13" style="edgeStyle=orthogonalEdgeStyle;rounded=0;orthogonalLoop=1;jettySize=auto;html=1;entryX=0;entryY=0.5;entryDx=0;entryDy=0;" edge="1" parent="1" source="WyRIN565EIURAvWv9ww3-1" target="Lt7wgXIMTxFdf6OJwrkP-1">
          <mxGeometry relative="1" as="geometry" />
        </mxCell>
        <mxCell id="Lt7wgXIMTxFdf6OJwrkP-14" style="edgeStyle=orthogonalEdgeStyle;rounded=0;orthogonalLoop=1;jettySize=auto;html=1;entryX=0;entryY=0.5;entryDx=0;entryDy=0;" edge="1" parent="1" source="WyRIN565EIURAvWv9ww3-1" target="WyRIN565EIURAvWv9ww3-7">
          <mxGeometry relative="1" as="geometry" />
        </mxCell>
        <mxCell id="Lt7wgXIMTxFdf6OJwrkP-15" style="edgeStyle=orthogonalEdgeStyle;rounded=0;orthogonalLoop=1;jettySize=auto;html=1;entryX=0;entryY=0.5;entryDx=0;entryDy=0;" edge="1" parent="1" source="WyRIN565EIURAvWv9ww3-1" target="WyRIN565EIURAvWv9ww3-8">
          <mxGeometry relative="1" as="geometry" />
        </mxCell>
        <mxCell id="Lt7wgXIMTxFdf6OJwrkP-16" style="edgeStyle=orthogonalEdgeStyle;rounded=0;orthogonalLoop=1;jettySize=auto;html=1;entryX=0;entryY=0.5;entryDx=0;entryDy=0;" edge="1" parent="1" source="WyRIN565EIURAvWv9ww3-1" target="WyRIN565EIURAvWv9ww3-10">
          <mxGeometry relative="1" as="geometry" />
        </mxCell>
        <mxCell id="WyRIN565EIURAvWv9ww3-1" value="Zákazník" style="shape=umlActor;verticalLabelPosition=bottom;verticalAlign=top;html=1;outlineConnect=0;" parent="1" vertex="1">
          <mxGeometry x="150" y="220" width="30" height="60" as="geometry" />
        </mxCell>
        <mxCell id="Lt7wgXIMTxFdf6OJwrkP-18" style="edgeStyle=orthogonalEdgeStyle;rounded=0;orthogonalLoop=1;jettySize=auto;html=1;entryX=0;entryY=0.5;entryDx=0;entryDy=0;" edge="1" parent="1" source="WyRIN565EIURAvWv9ww3-2" target="WyRIN565EIURAvWv9ww3-9">
          <mxGeometry relative="1" as="geometry" />
        </mxCell>
        <mxCell id="WyRIN565EIURAvWv9ww3-2" value="Externí poskytovatel&lt;div&gt;platebních služeb&lt;/div&gt;" style="shape=umlActor;verticalLabelPosition=bottom;verticalAlign=top;html=1;outlineConnect=0;" parent="1" vertex="1">
          <mxGeometry x="150" y="640" width="30" height="60" as="geometry" />
        </mxCell>
        <mxCell id="Lt7wgXIMTxFdf6OJwrkP-17" style="edgeStyle=orthogonalEdgeStyle;rounded=0;orthogonalLoop=1;jettySize=auto;html=1;entryX=0;entryY=0.5;entryDx=0;entryDy=0;" edge="1" parent="1" source="WyRIN565EIURAvWv9ww3-5" target="Lt7wgXIMTxFdf6OJwrkP-5">
          <mxGeometry relative="1" as="geometry" />
        </mxCell>
        <mxCell id="Lt7wgXIMTxFdf6OJwrkP-31" style="edgeStyle=orthogonalEdgeStyle;rounded=0;orthogonalLoop=1;jettySize=auto;html=1;entryX=0;entryY=0.5;entryDx=0;entryDy=0;" edge="1" parent="1" source="WyRIN565EIURAvWv9ww3-5" target="Lt7wgXIMTxFdf6OJwrkP-30">
          <mxGeometry relative="1" as="geometry" />
        </mxCell>
        <mxCell id="WyRIN565EIURAvWv9ww3-5" value="Bankovní pracovník" style="shape=umlActor;verticalLabelPosition=bottom;verticalAlign=top;html=1;outlineConnect=0;" parent="1" vertex="1">
          <mxGeometry x="150" y="390" width="30" height="60" as="geometry" />
        </mxCell>
        <mxCell id="WyRIN565EIURAvWv9ww3-7" value="UC2: Zobrazení a správa bankovních účtů" style="ellipse;whiteSpace=wrap;html=1;" parent="1" vertex="1">
          <mxGeometry x="305" y="110" width="120" height="80" as="geometry" />
        </mxCell>
        <mxCell id="Lt7wgXIMTxFdf6OJwrkP-20" style="edgeStyle=orthogonalEdgeStyle;rounded=0;orthogonalLoop=1;jettySize=auto;html=1;entryX=0;entryY=0.5;entryDx=0;entryDy=0;dashed=1;" edge="1" parent="1" source="WyRIN565EIURAvWv9ww3-8" target="Lt7wgXIMTxFdf6OJwrkP-21">
          <mxGeometry relative="1" as="geometry" />
        </mxCell>
        <mxCell id="Lt7wgXIMTxFdf6OJwrkP-23" value="include" style="edgeLabel;html=1;align=center;verticalAlign=middle;resizable=0;points=[];" vertex="1" connectable="0" parent="Lt7wgXIMTxFdf6OJwrkP-20">
          <mxGeometry x="-0.1873" y="3" relative="1" as="geometry">
            <mxPoint y="-21" as="offset" />
          </mxGeometry>
        </mxCell>
        <mxCell id="Lt7wgXIMTxFdf6OJwrkP-26" style="edgeStyle=orthogonalEdgeStyle;rounded=0;orthogonalLoop=1;jettySize=auto;html=1;dashed=1;" edge="1" parent="1" source="WyRIN565EIURAvWv9ww3-8" target="Lt7wgXIMTxFdf6OJwrkP-25">
          <mxGeometry relative="1" as="geometry" />
        </mxCell>
        <mxCell id="Lt7wgXIMTxFdf6OJwrkP-27" value="include" style="edgeLabel;html=1;align=center;verticalAlign=middle;resizable=0;points=[];" vertex="1" connectable="0" parent="Lt7wgXIMTxFdf6OJwrkP-26">
          <mxGeometry x="0.4019" y="2" relative="1" as="geometry">
            <mxPoint as="offset" />
          </mxGeometry>
        </mxCell>
        <mxCell id="WyRIN565EIURAvWv9ww3-8" value="UC3: Provádění plateb" style="ellipse;whiteSpace=wrap;html=1;" parent="1" vertex="1">
          <mxGeometry x="305" y="200" width="120" height="80" as="geometry" />
        </mxCell>
        <mxCell id="WyRIN565EIURAvWv9ww3-9" value="UC4: Ověření transakce" style="ellipse;whiteSpace=wrap;html=1;" parent="1" vertex="1">
          <mxGeometry x="305" y="630" width="120" height="80" as="geometry" />
        </mxCell>
        <mxCell id="Lt7wgXIMTxFdf6OJwrkP-8" style="edgeStyle=orthogonalEdgeStyle;rounded=0;orthogonalLoop=1;jettySize=auto;html=1;exitX=1;exitY=0.5;exitDx=0;exitDy=0;entryX=0;entryY=0.5;entryDx=0;entryDy=0;dashed=1;" edge="1" parent="1" source="WyRIN565EIURAvWv9ww3-10" target="Lt7wgXIMTxFdf6OJwrkP-6">
          <mxGeometry relative="1" as="geometry" />
        </mxCell>
        <mxCell id="Lt7wgXIMTxFdf6OJwrkP-9" value="include" style="edgeLabel;html=1;align=center;verticalAlign=middle;resizable=0;points=[];" vertex="1" connectable="0" parent="Lt7wgXIMTxFdf6OJwrkP-8">
          <mxGeometry x="-0.2067" relative="1" as="geometry">
            <mxPoint as="offset" />
          </mxGeometry>
        </mxCell>
        <mxCell id="WyRIN565EIURAvWv9ww3-10" value="UC5&lt;span style=&quot;background-color: initial;&quot;&gt;: Žádost o půjčku&lt;/span&gt;" style="ellipse;whiteSpace=wrap;html=1;" parent="1" vertex="1">
          <mxGeometry x="305" y="290" width="120" height="80" as="geometry" />
        </mxCell>
        <mxCell id="Lt7wgXIMTxFdf6OJwrkP-1" value="UC1: Přihlášení do internetového bankovnictví" style="ellipse;whiteSpace=wrap;html=1;" vertex="1" parent="1">
          <mxGeometry x="305" y="20" width="120" height="80" as="geometry" />
        </mxCell>
        <mxCell id="Lt7wgXIMTxFdf6OJwrkP-5" value="UC6: Schválení půjčky" style="ellipse;whiteSpace=wrap;html=1;" vertex="1" parent="1">
          <mxGeometry x="305" y="380" width="120" height="80" as="geometry" />
        </mxCell>
        <mxCell id="Lt7wgXIMTxFdf6OJwrkP-10" style="edgeStyle=orthogonalEdgeStyle;rounded=0;orthogonalLoop=1;jettySize=auto;html=1;exitX=0;exitY=1;exitDx=0;exitDy=0;entryX=1;entryY=0.5;entryDx=0;entryDy=0;dashed=1;" edge="1" parent="1" source="Lt7wgXIMTxFdf6OJwrkP-6" target="Lt7wgXIMTxFdf6OJwrkP-5">
          <mxGeometry relative="1" as="geometry" />
        </mxCell>
        <mxCell id="Lt7wgXIMTxFdf6OJwrkP-11" value="extends" style="edgeLabel;html=1;align=center;verticalAlign=middle;resizable=0;points=[];" vertex="1" connectable="0" parent="Lt7wgXIMTxFdf6OJwrkP-10">
          <mxGeometry x="-0.0942" relative="1" as="geometry">
            <mxPoint as="offset" />
          </mxGeometry>
        </mxCell>
        <mxCell id="Lt7wgXIMTxFdf6OJwrkP-35" style="edgeStyle=orthogonalEdgeStyle;rounded=0;orthogonalLoop=1;jettySize=auto;html=1;exitX=0.5;exitY=1;exitDx=0;exitDy=0;entryX=1;entryY=0.5;entryDx=0;entryDy=0;dashed=1;" edge="1" parent="1" source="Lt7wgXIMTxFdf6OJwrkP-6" target="Lt7wgXIMTxFdf6OJwrkP-30">
          <mxGeometry relative="1" as="geometry" />
        </mxCell>
        <mxCell id="Lt7wgXIMTxFdf6OJwrkP-40" value="Extends" style="edgeLabel;html=1;align=center;verticalAlign=middle;resizable=0;points=[];" vertex="1" connectable="0" parent="Lt7wgXIMTxFdf6OJwrkP-35">
          <mxGeometry x="-0.788" y="1" relative="1" as="geometry">
            <mxPoint as="offset" />
          </mxGeometry>
        </mxCell>
        <mxCell id="Lt7wgXIMTxFdf6OJwrkP-6" value="Automatická kontrola půjčky" style="ellipse;whiteSpace=wrap;html=1;" vertex="1" parent="1">
          <mxGeometry x="510" y="330" width="120" height="80" as="geometry" />
        </mxCell>
        <mxCell id="Lt7wgXIMTxFdf6OJwrkP-37" style="edgeStyle=orthogonalEdgeStyle;rounded=0;orthogonalLoop=1;jettySize=auto;html=1;exitX=0.5;exitY=1;exitDx=0;exitDy=0;entryX=1;entryY=0.5;entryDx=0;entryDy=0;dashed=1;" edge="1" parent="1" source="Lt7wgXIMTxFdf6OJwrkP-19" target="Lt7wgXIMTxFdf6OJwrkP-30">
          <mxGeometry relative="1" as="geometry" />
        </mxCell>
        <mxCell id="Lt7wgXIMTxFdf6OJwrkP-38" value="Extends" style="edgeLabel;html=1;align=center;verticalAlign=middle;resizable=0;points=[];" vertex="1" connectable="0" parent="Lt7wgXIMTxFdf6OJwrkP-37">
          <mxGeometry x="-0.4374" relative="1" as="geometry">
            <mxPoint as="offset" />
          </mxGeometry>
        </mxCell>
        <mxCell id="Lt7wgXIMTxFdf6OJwrkP-19" value="Automatická kontrola platby" style="ellipse;whiteSpace=wrap;html=1;" vertex="1" parent="1">
          <mxGeometry x="700" y="110" width="120" height="80" as="geometry" />
        </mxCell>
        <mxCell id="Lt7wgXIMTxFdf6OJwrkP-22" style="edgeStyle=orthogonalEdgeStyle;rounded=0;orthogonalLoop=1;jettySize=auto;html=1;entryX=0;entryY=0.5;entryDx=0;entryDy=0;dashed=1;" edge="1" parent="1" source="Lt7wgXIMTxFdf6OJwrkP-21" target="Lt7wgXIMTxFdf6OJwrkP-19">
          <mxGeometry relative="1" as="geometry" />
        </mxCell>
        <mxCell id="Lt7wgXIMTxFdf6OJwrkP-24" value="include" style="edgeLabel;html=1;align=center;verticalAlign=middle;resizable=0;points=[];" vertex="1" connectable="0" parent="Lt7wgXIMTxFdf6OJwrkP-22">
          <mxGeometry x="-0.0786" y="2" relative="1" as="geometry">
            <mxPoint as="offset" />
          </mxGeometry>
        </mxCell>
        <mxCell id="Lt7wgXIMTxFdf6OJwrkP-21" value="Převod" style="ellipse;whiteSpace=wrap;html=1;" vertex="1" parent="1">
          <mxGeometry x="500" y="110" width="120" height="80" as="geometry" />
        </mxCell>
        <mxCell id="Lt7wgXIMTxFdf6OJwrkP-28" style="edgeStyle=orthogonalEdgeStyle;rounded=0;orthogonalLoop=1;jettySize=auto;html=1;entryX=1;entryY=0.5;entryDx=0;entryDy=0;dashed=1;" edge="1" parent="1" source="Lt7wgXIMTxFdf6OJwrkP-25" target="WyRIN565EIURAvWv9ww3-9">
          <mxGeometry relative="1" as="geometry">
            <Array as="points">
              <mxPoint x="800" y="260" />
              <mxPoint x="800" y="670" />
            </Array>
          </mxGeometry>
        </mxCell>
        <mxCell id="Lt7wgXIMTxFdf6OJwrkP-29" value="Extends" style="edgeLabel;html=1;align=center;verticalAlign=middle;resizable=0;points=[];" vertex="1" connectable="0" parent="Lt7wgXIMTxFdf6OJwrkP-28">
          <mxGeometry x="0.3446" y="2" relative="1" as="geometry">
            <mxPoint as="offset" />
          </mxGeometry>
        </mxCell>
        <mxCell id="Lt7wgXIMTxFdf6OJwrkP-36" style="edgeStyle=orthogonalEdgeStyle;rounded=0;orthogonalLoop=1;jettySize=auto;html=1;exitX=1;exitY=1;exitDx=0;exitDy=0;entryX=1;entryY=0.5;entryDx=0;entryDy=0;dashed=1;" edge="1" parent="1" source="Lt7wgXIMTxFdf6OJwrkP-25" target="Lt7wgXIMTxFdf6OJwrkP-30">
          <mxGeometry relative="1" as="geometry">
            <Array as="points">
              <mxPoint x="660" y="288" />
              <mxPoint x="660" y="510" />
            </Array>
          </mxGeometry>
        </mxCell>
        <mxCell id="Lt7wgXIMTxFdf6OJwrkP-39" value="Extends" style="edgeLabel;html=1;align=center;verticalAlign=middle;resizable=0;points=[];" vertex="1" connectable="0" parent="Lt7wgXIMTxFdf6OJwrkP-36">
          <mxGeometry x="-0.3394" y="-1" relative="1" as="geometry">
            <mxPoint as="offset" />
          </mxGeometry>
        </mxCell>
        <mxCell id="Lt7wgXIMTxFdf6OJwrkP-25" value="Platba přes platební bránu" style="ellipse;whiteSpace=wrap;html=1;" vertex="1" parent="1">
          <mxGeometry x="520" y="220" width="120" height="80" as="geometry" />
        </mxCell>
        <mxCell id="Lt7wgXIMTxFdf6OJwrkP-42" style="edgeStyle=orthogonalEdgeStyle;rounded=0;orthogonalLoop=1;jettySize=auto;html=1;exitX=1;exitY=1;exitDx=0;exitDy=0;entryX=0;entryY=0.5;entryDx=0;entryDy=0;dashed=1;" edge="1" parent="1" source="Lt7wgXIMTxFdf6OJwrkP-30" target="Lt7wgXIMTxFdf6OJwrkP-41">
          <mxGeometry relative="1" as="geometry" />
        </mxCell>
        <mxCell id="Lt7wgXIMTxFdf6OJwrkP-43" value="Include" style="edgeLabel;html=1;align=center;verticalAlign=middle;resizable=0;points=[];" vertex="1" connectable="0" parent="Lt7wgXIMTxFdf6OJwrkP-42">
          <mxGeometry x="-0.0832" relative="1" as="geometry">
            <mxPoint as="offset" />
          </mxGeometry>
        </mxCell>
        <mxCell id="Lt7wgXIMTxFdf6OJwrkP-30" value="UC7: Ověření vysoké transakce" style="ellipse;whiteSpace=wrap;html=1;" vertex="1" parent="1">
          <mxGeometry x="300" y="470" width="120" height="80" as="geometry" />
        </mxCell>
        <mxCell id="Lt7wgXIMTxFdf6OJwrkP-41" value="Zapsání ověření" style="ellipse;whiteSpace=wrap;html=1;" vertex="1" parent="1">
          <mxGeometry x="540" y="550" width="120" height="80" as="geometry" />
        </mxCell>
      </root>
    </mxGraphModel>
  </diagram>
</mxfile>
